<svg height="512pt" viewBox="0 -2 512.00012 512" width="512pt" xmlns="http://www.w3.org/2000/svg"><path d="m508.925781 211.660156-85.871093 45.269532c-3.664063 1.917968-4.148438 6.96875-.929688 9.550781l84.074219 67.660156c4.566406 3.683594 1.347656 11.03125-4.453125 10.171875l-106.785156-16.027344c-4.335938-.652344-7.777344 3.59375-6.234376 7.699219l9.242188 24.664063 46.363281 123.792968c2.238281 6-5.539062 10.621094-9.730469 5.78125l-115.3125-133.003906c-2.964843-3.421875-8.523437-2.230469-9.835937 2.09375l-44.234375 145.601562c-1.585938 5.230469-8.890625 5.503907-10.851562.410157l-57.457032-148.285157c-1.613281-4.15625-7.136718-4.984374-9.886718-1.476562l-84.820313 108.140625c-3.554687 4.523437-10.8125 1.601563-10.238281-4.125l12.785156-127.488281c.417969-4.125-3.53125-7.3125-7.46875-6.054688l-87.789062 28.082032c-5.285157 1.6875-9.664063-4.34375-6.410157-8.835938l57.546875-79.617188c1.289063-1.785156 1.445313-4.167968.394532-6.109374l-60.3125-111.351563c-2.414063-4.46875 1.710937-9.640625 6.605468-8.273437l58.386719 16.347656 31.953125 8.945312c3.859375 1.082032 7.613281-2.019531 7.28125-6.011718l-12.730469-152.96875c-.519531-6.179688 7.753907-8.683594 10.753907-3.265626l85.332031 153.796876c2.171875 3.925781 7.800781 3.949218 10.015625.054687l59.386718-104.511719c2.472657-4.335937 8.902344-3.683594 10.457032 1.046875l34.460937 104.710938c1.222657 3.75 5.789063 5.164062 8.933594 2.78125l160.535156-121.855469c4.722657-3.582031 11.121094 1.457031 8.738281 6.882812l-62.199218 141.753907c-1.613282 3.660156.914062 7.796875 4.90625 8.050781l83.082031 5.152344c5.789063.351562 7.457031 8.105468 2.316406 10.820312zm0 0" fill="#f44545"/><path d="m508.925781 211.660156-85.871093 45.269532c-3.664063 1.917968-4.148438 6.96875-.929688 9.550781l84.074219 67.660156c4.566406 3.683594 1.347656 11.03125-4.453125 10.171875l-106.785156-16.027344c-4.335938-.652344-7.777344 3.59375-6.234376 7.699219l9.242188 24.664063c-165.6875-2.0625-302.835938-89.414063-332.265625-204.371094l31.953125 8.945312c3.859375 1.082032 7.613281-2.019531 7.28125-6.011718l-12.730469-152.96875c-.519531-6.179688 7.753907-8.683594 10.753907-3.265626l85.332031 153.796876c2.171875 3.925781 7.800781 3.949218 10.015625.054687l59.386718-104.511719c2.472657-4.335937 8.902344-3.683594 10.457032 1.046875l34.460937 104.710938c1.222657 3.75 5.789063 5.164062 8.933594 2.78125l160.535156-121.855469c4.722657-3.582031 11.121094 1.457031 8.738281 6.882812l-62.199218 141.753907c-1.613282 3.660156.914062 7.796875 4.90625 8.050781l83.082031 5.152344c5.789063.351562 7.457031 8.105468 2.316406 10.820312zm0 0" fill="#fb5858"/><g fill="#2e5aac"><path d="m98.753906 297.75v-37.054688h18.21875c21.085938 0 34.40625-11.523437 34.40625-36.648437 0-22.570313-12.113281-35-34.105468-35-.300782 0-27.402344-.003906-27.703126.003906-4.230468.25-7.300781 3.148438-7.300781 6.890625v101.808594c.003907 9.621094 16.484375 9.539062 16.484375 0zm0-92.964844c22.917969 0 36.136719-3.117187 36.136719 21.207032 0 13.164062-5.859375 19.5625-17.917969 19.5625h-18.21875zm0 0"/><path d="m234.644531 270.539062v-46.339843c0-22.339844-12.539062-35.152344-34.40625-35.152344-21.863281 0-34.402343 12.8125-34.402343 35.152344v46.339843c0 22.433594 12.539062 35.300782 34.402343 35.300782 21.867188 0 34.40625-12.867188 34.40625-35.300782zm-52.324219 0v-46.339843c0-13.066407 5.863282-19.417969 17.917969-19.417969 12.058594 0 17.921875 6.351562 17.921875 19.417969v46.339843c0 13.167969-5.863281 19.566407-17.921875 19.566407-12.054687 0-17.917969-6.402344-17.917969-19.566407zm0 0"/><path d="m295.371094 299.804688 11.007812-40.898438 10.980469 40.796875c1.902344 8.085937 15.6875 8.238281 18.1875.226563 31.578125-109.226563 29.601563-101.828126 29.601563-103.539063 0-7.816406-13.839844-10.535156-16.0625-2.390625l-22.597657 80.203125-11.855469-44.214844c-2.410156-8.199219-14.910156-7.460937-16.683593.078125l-11.832031 44.136719-22.589844-80.175781c-2.238282-8.203125-16.070313-5.4375-16.070313 2.363281 0 1.710937-1.980469-5.660156 29.734375 103.488281 2.390625 8.125 16.195313 7.863282 18.179688-.074218zm0 0"/><path d="m387.226562 304.867188c5.4375 0 10.035157-4.664063 10.035157-10.183594 0-5.699219-4.503907-10.335938-10.035157-10.335938-5.710937 0-10.1875 4.539063-10.1875 10.335938 0 5.617187 4.570313 10.183594 10.1875 10.183594zm0 0"/><path d="m387.152344 274.535156c4.566406 0 8.269531-3.703125 8.269531-8.273437v-68.753907c0-4.570312-3.703125-8.273437-8.269531-8.273437-4.570313 0-8.273438 3.703125-8.273438 8.273437v68.753907c0 4.570312 3.703125 8.273437 8.273438 8.273437zm0 0"/></g></svg>