<svg id="Calque_1" data-name="Calque 1" xmlns="http://www.w3.org/2000/svg" viewBox="0 0 95.14 96.19"><defs><style>.cls-1{isolation:isolate;font-size:5px;font-family:Arial-BoldMT, Arial;font-weight:700;}.cls-2{letter-spacing:-0.04em;}</style></defs><title>dog</title><path d="M93.84,19.46C86.69,16.78,78.31,13.32,77,12.3c-.43-.87-.66-4.39-.49-7.67A2,2,0,0,0,73,3.25c-.16.19-16.12,19.25-23,23-6.46,3.53-28,6.53-32.2,7.08l-3.84-3.84a2,2,0,0,0-2.83,2.83l4,4L7.52,68.72A2,2,0,0,0,9,71.12a1.73,1.73,0,0,0,.45,0,2,2,0,0,0,1.95-1.54l7.51-32.4c5.59-.75,26.09-3.71,32.94-7.45,5.48-3,15.39-13.85,20.67-19.88.18,2.25.63,4.23,1.58,5.18,1.67,1.67,11.33,5.48,16.77,7.54-.44,1.78-1.62,4.56-4.71,4.56a73.09,73.09,0,0,1-12-1.13,2,2,0,0,0-2.25,1.27c-.51,1.38-4.47,12.2-5.49,18.53l-3.37.44a2,2,0,0,0,.26,4h.26l2.94-.39c.73,1.67,2.52,2.85,4.15,3.92a10.57,10.57,0,0,1,2.48,1.94C73,56.78,70,59.29,66.94,61a2,2,0,0,0,1.91,3.51c1.93-1,8.22-4.76,8.31-8.75,0-2.45-2.26-4-4.3-5.3-.88-.58-2.53-1.66-2.67-2.14,0-3.59,3.17-13.12,4.91-18a74.55,74.55,0,0,0,11.08.92c6.48,0,8.69-6.35,8.95-9.7A2,2,0,0,0,93.84,19.46Z" transform="translate(0 -2.53)"/><path d="M55.91,46.88,27,51.16l-4.56.6a2,2,0,0,0,.25,4H23l2.13-.28L24.05,69a2,2,0,0,0,1.84,2.16h.16a2,2,0,0,0,2-1.84l1.14-14.44,25-3.72v18a2,2,0,0,0,4,0V48.86a2,2,0,0,0-.69-1.52A2,2,0,0,0,55.91,46.88Z" transform="translate(0 -2.53)"/><text class="cls-1" transform="translate(0 89.3)">Created by<tspan class="cls-2" x="25.84" y="0"> </tspan><tspan x="27.05" y="0">Andrew Shalansky</tspan></text><text class="cls-1" transform="translate(0 94.3)">from the Noun Project</text></svg>