<?xml version="1.0" encoding="utf-8"?>
<!-- Generator: Adobe Illustrator 22.1.0, SVG Export Plug-In . SVG Version: 6.00 Build 0)  -->
<svg version="1.1" id="Calque_1" xmlns="http://www.w3.org/2000/svg" xmlns:xlink="http://www.w3.org/1999/xlink" x="0px" y="0px"
	 viewBox="0 0 640 480" style="enable-background:new 0 0 640 480;" xml:space="preserve">
<style type="text/css">
	.st0{fill:#FDBA5B;}
	.st1{fill:#5C3921;}
	.st2{fill:#FDCC86;}
	.st3{opacity:0.4;fill:#878787;}
	.st4{fill:#EB7900;}
	.st5{fill:#FD9400;}
	.st6{fill:#878787;}
	.st7{fill:#303030;}
	.st8{fill:#5E5E5E;}
</style>
<g>
	<polygon class="st0" points="332.8,128.2 314.5,133.2 296.5,128.2 301.6,95 327.7,95 	"/>
	<g>
		<polygon class="st1" points="286,49.2 289,60.5 340,60.5 344.3,49.2 		"/>
		<polygon class="st2" points="343.1,56.4 343.1,74.9 339.7,74.9 339.7,84.9 325.1,108.6 304,108.6 289.4,84.9 289.4,74.9 286,74.9 
			286,56.4 289.4,56.4 289.4,41.1 339.7,41.1 339.7,56.4 		"/>
		<rect x="289.4" y="47.8" class="st3" width="50.4" height="8.6"/>
		<polygon class="st3" points="308.1,85.2 314.6,64.6 321,85.2 		"/>
		<g>
			<rect x="281.8" y="28.7" class="st4" width="8.3" height="11.3"/>
			<rect x="339" y="28.7" class="st4" width="8.3" height="11.3"/>
			<path class="st5" d="M344.9,40.4c0-0.4,0.1-0.8,0.1-1.2c0-16.8-13.6-30.4-30.4-30.4c-16.8,0-30.4,13.6-30.4,30.4
				c0,0.4,0,0.8,0.1,1.2H344.9z"/>
			<polygon class="st4" points="320.2,38.8 308.4,38.8 303.9,4 324.6,4 			"/>
			<path class="st4" d="M347.4,45.3c0,2.9-2.2,5.3-4.9,5.3h-55.9c-2.7,0-4.9-2.4-4.9-5.3l0,0c0-2.9,0-5.3,0-5.3h65.4
				C347.3,40,347.4,42.4,347.4,45.3L347.4,45.3z"/>
		</g>
	</g>
	<polygon class="st2" points="239.6,173.3 225.1,210.9 201.4,177.1 187.7,183.1 225.5,251.5 259.6,186.2 	"/>
	<polygon class="st2" points="376,141.1 438.9,182.6 408.1,238.6 390.5,238.6 409.8,189.9 365.4,164 	"/>
	<polygon class="st2" points="406.4,238.6 376,222.7 357.7,238.6 	"/>
	<g>
		<polygon class="st6" points="215.7,133.4 193.1,127.4 193.1,127.4 187.7,147.3 185.1,146.6 190.4,126.6 167.8,120.6 204.5,78.7 
			204.7,78.4 		"/>
		<polygon class="st5" points="186,135.6 165.1,194.5 179,198.8 192.6,137.3 		"/>
		<polygon class="st3" points="215.7,133.4 193.1,127.4 193.1,127.4 191.7,127 204.5,78.7 204.7,78.4 		"/>
	</g>
	<polygon class="st2" points="201.4,177.1 201.4,155.7 174.6,148.7 167.8,177.1 187.7,183.1 	"/>
	<path class="st7" d="M402.1,153.4l-20.1,28.3l-16.6-6.9L355,188.1l-92.7-1l-3.4,9.6l-24.9-13.5l16-46.2l17.8-9l13.6-6.9l17.1-6.4
		c0,0,5.1,15.2,16.3,15.2c11.2,0,15.9-15.2,15.9-15.2l18.2,6.4l13.6,6.9l17.8,9L402.1,153.4z"/>
	<polygon class="st5" points="277.7,233.7 271.2,296.3 314.6,296.3 315.2,291.9 316.1,296.3 361.1,296.3 352.8,233.7 362.5,150.9 
		362.5,150.9 362.5,150.9 362.5,128 348.9,121.1 348.9,150.9 281.5,150.9 281.5,121.1 267.9,128 267.9,150.9 267.9,150.9 	"/>
	<rect x="288.6" y="161.8" class="st4" width="52" height="36.6"/>
	<g>
		<rect x="293.1" y="273.9" class="st6" width="91.5" height="27.8"/>
		<rect x="198.1" y="273.9" class="st6" width="91.5" height="27.8"/>
		<rect x="155.6" y="438.6" class="st6" width="91.5" height="27.8"/>
		<rect x="388" y="405.7" class="st6" width="91.5" height="27.8"/>
		<rect x="293.1" y="405.7" class="st6" width="91.5" height="27.8"/>
		<rect x="198.1" y="405.7" class="st6" width="91.5" height="27.8"/>
		<rect x="345.5" y="372.7" class="st6" width="91.5" height="27.8"/>
		<rect x="250.6" y="372.7" class="st6" width="91.5" height="27.8"/>
		<rect x="155.6" y="372.7" class="st6" width="91.5" height="27.8"/>
		<rect x="388" y="339.8" class="st6" width="91.5" height="27.8"/>
		<rect x="293.1" y="339.8" class="st6" width="91.5" height="27.8"/>
		<rect x="198.1" y="339.8" class="st6" width="91.5" height="27.8"/>
		<rect x="345.5" y="306.8" class="st6" width="91.5" height="27.8"/>
		<rect x="250.6" y="306.8" class="st6" width="91.5" height="27.8"/>
		<rect x="345.5" y="241.2" class="st6" width="91.5" height="27.8"/>
		<rect x="155.6" y="306.8" class="st6" width="91.5" height="27.8"/>
		<rect x="388" y="273.9" class="st6" width="91.5" height="27.8"/>
		<rect x="345.5" y="438.6" class="st6" width="91.5" height="27.8"/>
		<g>
			<rect x="250.6" y="438.6" class="st6" width="91.5" height="27.8"/>
			<path class="st8" d="M482,304.3v-32.9h-42.5v-32.7h-96.6v32.7h-50.7h-1.7h-94.9v32.9h-42.5v32.9h42.5v32.9h-42.5v32.9h42.5v32.9
				h-42.5V469H248h1.7h93.2h1.7h94.9v-32.9H482v-32.9h-42.5v-32.9H482v-32.9h-42.5v-32.9H482z M348.1,243.7h86.4v22.7h-86.4V243.7z
				 M295.6,276.5H382v22.7h-86.4V276.5z M382,365h-86.4v-22.7H382V365z M434.4,375.3V398h-86.4v-22.7H434.4z M253.1,398v-22.7h86.4
				V398H253.1z M287.1,408.2v22.7h-86.4v-22.7H287.1z M200.7,365v-22.7h86.4V365H200.7z M348.1,332.1v-22.7h86.4v22.7H348.1z
				 M339.5,309.4v22.7h-86.4v-22.7H339.5z M200.7,276.5h86.4v22.7h-86.4V276.5z M158.2,332.1v-22.7h86.4v22.7H158.2z M158.2,398
				v-22.7h86.4V398H158.2z M244.6,463.9h-86.4v-22.7h86.4V463.9z M339.5,463.9h-86.4v-22.7h86.4V463.9z M295.6,430.9v-22.7H382v22.7
				H295.6z M434.4,463.9h-86.4v-22.7h86.4V463.9z M476.9,408.2v22.7h-86.4v-22.7H476.9z M476.9,342.3V365h-86.4v-22.7H476.9z
				 M390.5,299.1v-22.7h86.4v22.7H390.5z"/>
		</g>
	</g>
</g>
</svg>
