<?xml version="1.0" encoding="utf-8"?>
<!-- Generator: Adobe Illustrator 22.1.0, SVG Export Plug-In . SVG Version: 6.00 Build 0)  -->
<svg version="1.1" id="Calque_1" xmlns="http://www.w3.org/2000/svg" xmlns:xlink="http://www.w3.org/1999/xlink" x="0px" y="0px"
	 viewBox="0 0 100 78.5" style="enable-background:new 0 0 100 78.5;" xml:space="preserve">
<g>
	<g>
		<g>
			<path d="M68.8,14.8l-10-2.5c-0.7-0.2-1.5,0.3-1.7,1l-2.5,10c-0.2,0.7,0.3,1.5,1,1.7c0.1,0,0.2,0,0.3,0c0.6,0,1.2-0.4,1.3-1
				l1.7-6.8l0.8,1.3c2.5,4.1,3.2,9,2.1,13.7c-1.2,4.7-4.1,8.6-8.2,11.1c-0.7,0.4-1.4,0.8-2.1,1.1c-1.1-1.9-2.9-3.4-5.2-3.8
				c-0.5-0.1-1.1-0.2-1.6-0.2c-3.6,0-6.8,2.6-7.6,6.2c-0.4,2,0,4.1,1.1,5.8c1.1,1.7,2.9,2.9,4.9,3.3c0.5,0.1,1.1,0.2,1.6,0.2
				c3.6,0,6.8-2.6,7.6-6.2c0.2-0.9,0.2-1.8,0.1-2.7c0.9-0.4,1.8-0.8,2.6-1.3c4.8-2.9,8.1-7.4,9.5-12.8c1.3-5.4,0.5-11-2.4-15.8
				l-0.8-1.3l6.8,1.7c0.7,0.2,1.5-0.3,1.7-1C70,15.7,69.6,15,68.8,14.8z M49.8,49.2c-0.5,2.3-2.5,4-4.9,4c-0.3,0-0.7,0-1-0.1
				c-1.3-0.3-2.4-1-3.2-2.2c-0.7-1.1-1-2.5-0.7-3.8c0.5-2.3,2.5-4,4.9-4c0.3,0,0.7,0,1,0.1C48.6,43.8,50.3,46.5,49.8,49.2z"/>
		</g>
	</g>
	<g>
		<path d="M78,46c0.5,0.5,0.5,1.4,0,1.9c-0.3,0.3-0.6,0.4-1,0.4c-0.4,0-0.7-0.1-1-0.4l-3.3-3.3l-3.3,3.3c-0.3,0.3-0.6,0.4-1,0.4
			c-0.3,0-0.7-0.1-1-0.4c-0.5-0.5-0.5-1.4,0-1.9l3.3-3.3l-3.3-3.3c-0.5-0.5-0.5-1.4,0-1.9c0.5-0.5,1.4-0.5,1.9,0l3.3,3.3l3.3-3.3
			c0.5-0.5,1.4-0.5,1.9,0c0.5,0.5,0.5,1.4,0,1.9l-3.3,3.3L78,46z"/>
		<path d="M49.4,25.7c0.5,0.5,0.5,1.4,0,1.9c-0.3,0.3-0.6,0.4-1,0.4s-0.7-0.1-1-0.4l-3.3-3.3l-3.3,3.3c-0.3,0.3-0.6,0.4-1,0.4
			s-0.7-0.1-1-0.4c-0.5-0.5-0.5-1.4,0-1.9l3.3-3.3L39,19.1c-0.5-0.5-0.5-1.4,0-1.9c0.5-0.5,1.4-0.5,1.9,0l3.3,3.3l3.3-3.3
			c0.5-0.5,1.4-0.5,1.9,0c0.5,0.5,0.5,1.4,0,1.9l-3.3,3.3L49.4,25.7z"/>
		<path d="M33.7,39.2c0.5,0.5,0.5,1.4,0,1.9c-0.3,0.3-0.6,0.4-1,0.4s-0.7-0.1-1-0.4l-3.3-3.3l-3.3,3.3c-0.3,0.3-0.6,0.4-1,0.4
			s-0.7-0.1-1-0.4c-0.5-0.5-0.5-1.4,0-1.9l3.3-3.3l-3.3-3.3c-0.5-0.5-0.5-1.4,0-1.9c0.5-0.5,1.4-0.5,1.9,0l3.3,3.3l3.3-3.3
			c0.5-0.5,1.4-0.5,1.9,0c0.5,0.5,0.5,1.4,0,1.9l-3.3,3.3L33.7,39.2z"/>
	</g>
	<g>
		<path d="M93.6,3.9H6.4C5.6,3.9,5,4.5,5,5.3V62c0,0.8,0.6,1.4,1.4,1.4h42.3v8.4H30.4c-0.8,0-1.4,0.6-1.4,1.4s0.6,1.4,1.4,1.4h39.2
			c0.8,0,1.4-0.6,1.4-1.4c0-0.8-0.6-1.4-1.4-1.4H51.4v-8.4h42.3c0.8,0,1.4-0.6,1.4-1.4V5.3C95,4.5,94.4,3.9,93.6,3.9z M92.3,60.7
			H7.7v-54h84.5V60.7z"/>
	</g>
</g>
</svg>
