<svg xmlns="http://www.w3.org/2000/svg" xmlns:xlink="http://www.w3.org/1999/xlink" xml:space="preserve" version="1.1" style="shape-rendering:geometricPrecision;text-rendering:geometricPrecision;image-rendering:optimizeQuality;" viewBox="0 0 267 166.25" x="0px" y="0px" fill-rule="evenodd" clip-rule="evenodd"><defs><style type="text/css">
   
    .fil0 {fill:black}
   
  </style></defs><g><path class="fil0" d="M263 133c11,-24 -5,-34 -9,-59 -11,15 -8,36 -17,39 5,-35 -31,-35 -29,-83 -29,23 -20,43 -17,60 -5,-8 -9,-17 -8,-32 -10,13 -18,30 -16,49 -29,-26 24,-62 -31,-107 2,55 -34,62 -38,94 -2,-5 -3,-11 -3,-19 -8,10 -14,23 -12,38 -23,-20 18,-49 -24,-83 2,48 -34,48 -30,83 -8,-3 -6,-24 -17,-39 -3,25 -19,35 -9,59l6 0c-13,-25 -1,-28 5,-43 8,15 7,36 30,41 -32,-46 15,-50 20,-89 34,40 -18,53 26,91 -2,-13 -10,-28 1,-42 6,18 22,13 14,42l5 0c4,-13 0,-20 -5,-27 -10,-42 33,-45 38,-91 44,53 -24,69 34,118 -3,-17 -14,-36 1,-54 7,24 28,17 17,53l7 0c5,-16 0,-25 -7,-35 -2,-16 -13,-30 8,-55 4,39 52,43 20,89 23,-5 22,-26 30,-41 5,15 17,18 4,43l6 0z"/></g><text x="0" y="148" fill="#000000" font-size="5px" font-weight="bold" font-family="'Helvetica Neue', Helvetica, Arial-Unicode, Arial, Sans-serif">Created by ayex</text><text x="0" y="153" fill="#000000" font-size="5px" font-weight="bold" font-family="'Helvetica Neue', Helvetica, Arial-Unicode, Arial, Sans-serif">from the Noun Project</text></svg>