<svg height="464pt" viewBox="-72 0 464 464" width="464pt" xmlns="http://www.w3.org/2000/svg"><g fill="#ff6aa0"><path d="m96 432h128c8.835938 0 16 7.164062 16 16v16h-160v-16c0-8.835938 7.164062-16 16-16zm0 0"/><path d="m144 304h32v128h-32zm0 0"/><path d="m8 128h304v16h-304zm0 0"/></g><path d="m280 136c0-75.109375-53.726562-136-120-136s-120 60.890625-120 136 53.726562 136 120 136 120-60.890625 120-136zm0 0" fill="#ccc"/><path d="m160 312c-88.222656 0-160-78.953125-160-176v-16c0-4.417969 3.582031-8 8-8s8 3.582031 8 8v16c0 88.222656 64.601562 160 144 160s144-71.777344 144-160v-16c0-4.417969 3.582031-8 8-8s8 3.582031 8 8v16c0 97.046875-71.777344 176-160 176zm0 0" fill="#696969"/></svg>