<svg height="512pt" viewBox="0 -21 512.0005 512" width="512pt" xmlns="http://www.w3.org/2000/svg"><path d="m471.359375 20.933594v355.609375c0 5.683593-4.617187 10.300781-10.300781 10.300781h-450.757813c-5.6875 0-10.300781-4.617188-10.300781-10.300781v-355.609375c0-11.558594 9.375-20.933594 20.933594-20.933594h429.492187c11.558594 0 20.933594 9.375 20.933594 20.933594zm0 0" fill="#e3f4ff"/><path d="m471.359375 364.417969v12.125c0 5.683593-4.617187 10.300781-10.300781 10.300781h-95.984375l-24.363281-24.363281c-7.128907-7.128907-8.261719-18-3.449219-26.34375l-28.230469-28.214844c-26.113281 17.914063-56.976562 27.554687-89.335938 27.554687-42.308593 0-82.074218-16.472656-111.992187-46.378906-61.746094-61.75-61.746094-162.230468 0-223.980468 29.917969-29.90625 69.683594-46.378907 111.992187-46.378907 42.300782 0 82.074219 16.472657 111.980469 46.378907 29.917969 29.914062 46.390625 69.691406 46.390625 111.988281 0 32.359375-9.640625 63.222656-27.570312 89.351562l28.21875 28.203125c3.285156-1.894531 7.015625-2.933594 10.910156-2.933594 5.832031 0 11.320312 2.277344 15.441406 6.40625zm0 0" fill="#bddff4"/><path d="m471.359375 20.933594v355.609375c0 5.683593-4.617187 10.300781-10.300781 10.300781h-22.53125c5.6875 0 10.300781-4.617188 10.300781-10.300781v-355.609375c0-11.558594-9.375-20.933594-20.933594-20.933594h22.53125c11.558594 0 20.933594 9.375 20.933594 20.933594zm0 0" fill="#bddff4"/><path d="m471.359375 20.933594v36.035156h-471.359375v-36.035156c0-11.570313 9.375-20.933594 20.933594-20.933594h429.492187c11.558594 0 20.933594 9.375 20.933594 20.933594zm0 0" fill="#9be058"/><path d="m322.898438 56.96875h-206.414063c28.710937-24.734375 64.921875-38.230469 103.210937-38.230469 38.28125 0 74.503907 13.496094 103.203126 38.230469zm0 0" fill="#1cc939"/><path d="m471.359375 20.933594v36.035156h-22.53125v-36.035156c0-11.558594-9.375-20.933594-20.933594-20.933594h22.53125c11.558594 0 20.933594 9.375 20.933594 20.933594zm0 0" fill="#1cc939"/><path d="m300.5625 281.964844 23.984375-23.984375 66.105469 66.105469-23.984375 23.984374zm0 0" fill="#9be058"/><path d="m365.707031 177.109375c0 80.640625-65.371093 146.011719-146.011719 146.011719-80.640624 0-146.011718-65.371094-146.011718-146.011719s65.371094-146.011719 146.011718-146.011719c80.640626 0 146.011719 65.371094 146.011719 146.011719zm0 0" fill="#618baa"/><path d="m304.253906 261.664062c-.410156.410157-.824218.8125-1.234375 1.203126-23.398437 22.757812-53.796875 34.027343-84.136719 33.820312-7.769531-.039062-15.535156-.855469-23.167968-2.421875-21.871094-4.4375-42.734375-15.058594-59.804688-31.851563-.257812-.238281-.511718-.496093-.769531-.75-46.710937-46.699218-46.710937-122.417968 0-169.117187 46.695313-46.699219 122.414063-46.699219 169.113281 0 46.699219 46.699219 46.699219 122.417969 0 169.117187zm0 0" fill="#fc3e81"/><path d="m303.015625 158.003906v104.863282c-23.394531 22.757812-53.792969 34.027343-84.132813 33.820312-7.769531-.039062-15.535156-.855469-23.167968-2.421875v-136.261719c0-29.625 24.023437-53.652344 53.648437-53.652344 14.816407 0 28.230469 6.007813 37.933594 15.710938 9.714844 9.714844 15.71875 23.128906 15.71875 37.941406zm0 0" fill="#1cc939"/><path d="m303.015625 158.003906v104.863282c-8.816406 8.582031-18.632813 15.523437-29.070313 20.839843v-125.703125c0-14.8125-6.007812-28.226562-15.722656-37.941406-6.40625-6.40625-14.421875-11.195312-23.394531-13.710938 4.625-1.308593 9.5-2 14.535156-2 14.816407 0 28.230469 6.007813 37.933594 15.710938 9.714844 9.714844 15.71875 23.128906 15.71875 37.941406zm0 0" fill="#00ad00"/><path d="m218.882812 224.453125v72.234375c-7.769531-.039062-15.535156-.855469-23.167968-2.421875-21.871094-4.4375-42.734375-15.058594-59.804688-31.851563v-37.960937c0-22.910156 18.574219-41.484375 41.488282-41.484375 6.570312 0 12.792968 1.535156 18.316406 4.253906 4.097656 2.019532 7.816406 4.699219 11.023437 7.902344 7.496094 7.5 12.144531 17.871094 12.144531 29.328125zm0 0" fill="#c0ff66"/><path d="m218.882812 224.453125v72.234375c-7.769531-.039062-15.535156-.855469-23.167968-2.421875-1.925782-.390625-3.84375-.832031-5.75-1.316406v-68.496094c0-11.457031-4.644532-21.832031-12.144532-29.332031-3.203124-3.203125-6.921874-5.878906-11.023437-7.902344-1.257813-.617188-2.554687-1.171875-3.875-1.667969 4.511719-1.667969 9.386719-2.585937 14.476563-2.585937 6.570312 0 12.792968 1.535156 18.316406 4.253906 4.097656 2.019531 7.816406 4.699219 11.023437 7.902344 7.496094 7.503906 12.144531 17.875 12.144531 29.332031zm0 0" fill="#9be058"/><path d="m509.21875 433.175781-33.457031 33.457031c-3.703125 3.703126-9.710938 3.703126-13.414063 0l-112.886718-112.890624c-3.707032-3.703126-3.707032-9.707032 0-13.410157l33.457031-33.460937c3.703125-3.703125 9.710937-3.703125 13.410156 0l112.890625 112.890625c3.703125 3.703125 3.703125 9.707031 0 13.414062zm0 0" fill="#618baa"/><path d="m396.332031 306.867188 112.890625 112.894531c3.703125 3.703125 3.703125 9.710937 0 13.410156l-13.332031 13.332031c3.703125-3.699218 3.703125-9.710937 0-13.410156l-112.890625-112.894531c-3.703125-3.699219-9.710938-3.699219-13.414062 0l13.332031-13.332031c3.703125-3.699219 9.710937-3.699219 13.414062 0zm0 0" fill="#4e7693"/><path d="m453.53125 461.894531c-1.976562 0-3.957031-.753906-5.464844-2.261719-3.015625-3.019531-3.015625-7.910156 0-10.929687l42.089844-42.085937c3.019531-3.019532 7.910156-3.019532 10.929688 0 3.015624 3.015624 3.015624 7.90625 0 10.925781l-42.089844 42.089843c-1.511719 1.507813-3.488282 2.261719-5.464844 2.261719zm0 0" fill="#9be058"/><path d="m47.839844 36.804688c-4.242188 0-7.699219-3.429688-7.722656-7.679688-.027344-4.265625 3.410156-7.789062 7.675781-7.816406h.050781c4.246094 0 7.699219 3.386718 7.722656 7.640625v.078125c.027344 4.269531-3.410156 7.75-7.675781 7.777344-.015625 0-.03125 0-.050781 0zm0 0" fill="#fc3e81"/><path d="m67.914062 36.804688c-4.246093 0-7.699218-3.429688-7.726562-7.679688-.027344-4.265625 3.410156-7.789062 7.679688-7.816406h.046874c4.246094 0 7.699219 3.386718 7.726563 7.640625v.078125c.027344 4.269531-3.410156 7.75-7.675781 7.777344-.019532 0-.035156 0-.050782 0zm0 0" fill="#1685fb"/><path d="m87.984375 36.804688c-4.242187 0-7.699219-3.429688-7.722656-7.679688-.027344-4.265625 3.410156-7.789062 7.675781-7.816406h.050781c4.242188 0 7.699219 3.386718 7.722657 7.640625l.003906.078125c.023437 4.269531-3.414063 7.75-7.679688 7.777344-.015625 0-.03125 0-.050781 0zm0 0" fill="#ffdf46"/><g fill="#618baa"><path d="m50.648438 313.796875h-4.226563c-4.265625 0-7.726563-3.457031-7.726563-7.726563 0-4.265624 3.460938-7.722656 7.726563-7.722656h4.226563c4.265624 0 7.726562 3.457032 7.726562 7.722656 0 4.269532-3.460938 7.726563-7.726562 7.726563zm0 0"/><path d="m95.390625 313.796875h-26.339844c-4.265625 0-7.726562-3.457031-7.726562-7.726563 0-4.265624 3.460937-7.722656 7.726562-7.722656h26.339844c4.265625 0 7.726563 3.457032 7.726563 7.722656 0 4.269532-3.460938 7.726563-7.726563 7.726563zm0 0"/><path d="m95.390625 334.210938h-48.96875c-4.265625 0-7.726563-3.457032-7.726563-7.726563 0-4.265625 3.460938-7.726563 7.726563-7.726563h48.96875c4.265625 0 7.726563 3.460938 7.726563 7.726563 0 4.269531-3.460938 7.726563-7.726563 7.726563zm0 0"/><path d="m95.390625 354.625h-48.96875c-4.265625 0-7.726563-3.460938-7.726563-7.726562 0-4.265626 3.460938-7.726563 7.726563-7.726563h48.96875c4.265625 0 7.726563 3.460937 7.726563 7.726563 0 4.265624-3.460938 7.726562-7.726563 7.726562zm0 0"/></g><path d="m429.714844 256.730469c-4.269532 0-7.726563-3.457031-7.726563-7.722657v-159.25c0-4.265624 3.457031-7.722656 7.726563-7.722656 4.265625 0 7.722656 3.457032 7.722656 7.722656v159.246094c.003906 4.269532-3.457031 7.726563-7.722656 7.726563zm0 0" fill="#9be058"/><path d="m312.144531 173.199219h-20.585937c-4.265625 0-7.726563-3.457031-7.726563-7.726563 0-4.265625 3.460938-7.722656 7.726563-7.722656h20.585937c4.265625 0 7.726563 3.457031 7.726563 7.722656 0 4.269532-3.460938 7.726563-7.726563 7.726563zm0 0" fill="#9be058"/><path d="m204.480469 165.679688h-20.585938c-4.265625 0-7.726562-3.457032-7.726562-7.726563 0-4.265625 3.460937-7.726563 7.726562-7.726563h20.585938c4.269531 0 7.726562 3.460938 7.726562 7.726563.003907 4.269531-3.457031 7.726563-7.726562 7.726563zm0 0" fill="#00ad00"/><path d="m312.144531 201.144531h-20.585937c-4.265625 0-7.726563-3.457031-7.726563-7.726562 0-4.265625 3.460938-7.726563 7.726563-7.726563h20.585937c4.265625 0 7.726563 3.460938 7.726563 7.726563 0 4.269531-3.460938 7.726562-7.726563 7.726562zm0 0" fill="#9be058"/><path d="m312.144531 229.550781h-20.585937c-4.265625 0-7.726563-3.457031-7.726563-7.722656 0-4.269531 3.460938-7.726563 7.726563-7.726563h20.585937c4.265625 0 7.726563 3.457032 7.726563 7.726563 0 4.265625-3.460938 7.722656-7.726563 7.722656zm0 0" fill="#9be058"/><path d="m225.5 247.554688h-20.585938c-4.265624 0-7.726562-3.460938-7.726562-7.726563s3.460938-7.726563 7.726562-7.726563h20.585938c4.269531 0 7.726562 3.460938 7.726562 7.726563s-3.457031 7.726563-7.726562 7.726563zm0 0" fill="#c0ff66"/><path d="m225.5 277.105469h-20.585938c-4.265624 0-7.726562-3.457031-7.726562-7.726563 0-4.265625 3.460938-7.726562 7.726562-7.726562h20.585938c4.269531 0 7.726562 3.460937 7.726562 7.726562 0 4.269532-3.457031 7.726563-7.726562 7.726563zm0 0" fill="#c0ff66"/><path d="m149.027344 221.800781c-.769532 0-1.550782-.117187-2.324219-.359375l-19.632813-6.179687c-4.066406-1.28125-6.328124-5.621094-5.046874-9.691407 1.28125-4.070312 5.617187-6.328124 9.691406-5.046874l19.632812 6.179687c4.066406 1.28125 6.328125 5.621094 5.046875 9.691406-1.039062 3.296875-4.082031 5.40625-7.367187 5.40625zm0 0" fill="#9be058"/><path d="m211.210938 136.835938c-1.46875 0-2.953126-.417969-4.269532-1.289063l-15.511718-10.304687c-3.554688-2.359376-4.523438-7.15625-2.160157-10.710938 2.359375-3.554688 7.152344-4.519531 10.710938-2.160156l15.511719 10.300781c3.554687 2.363281 4.523437 7.15625 2.160156 10.710937-1.488282 2.242188-3.941406 3.453126-6.441406 3.453126zm0 0" fill="#00ad00"/><path d="m238.453125 172.988281c-4.265625 0-7.726563-3.460937-7.726563-7.726562v-11.425781c0-4.269532 3.460938-7.726563 7.726563-7.726563 4.269531 0 7.726563 3.457031 7.726563 7.726563v11.425781c0 4.265625-3.457032 7.726562-7.726563 7.726562zm0 0" fill="#00ad00"/><path d="m238.453125 207.964844c-4.265625 0-7.726563-3.457032-7.726563-7.722656v-11.429688c0-4.269531 3.460938-7.726562 7.726563-7.726562 4.269531 0 7.726563 3.457031 7.726563 7.726562v11.429688c0 4.265624-3.457032 7.722656-7.726563 7.722656zm0 0" fill="#00ad00"/><path d="m167.464844 252.367188c-4.265625 0-7.726563-3.460938-7.726563-7.726563v-11.429687c0-4.265626 3.460938-7.726563 7.726563-7.726563 4.269531 0 7.726562 3.460937 7.726562 7.726563v11.429687c0 4.265625-3.457031 7.726563-7.726562 7.726563zm0 0" fill="#9be058"/><path d="m167.472656 202.253906c-2.460937 0-4.882812-1.175781-6.378906-3.359375l-12.804688-18.6875c-2.410156-3.519531-1.515624-8.328125 2.007813-10.738281 3.519531-2.414062 8.328125-1.515625 10.738281 2.003906l12.804688 18.6875c2.414062 3.519532 1.515625 8.328125-2.003906 10.738282-1.339844.914062-2.859376 1.355468-4.363282 1.355468zm0 0" fill="#9be058"/><path d="m235.683594 119.738281c-2.949219 0-5.765625-1.699219-7.050782-4.5625l-7.621093-16.964843c-1.746094-3.894532-.007813-8.464844 3.882812-10.214844 3.890625-1.746094 8.464844-.011719 10.214844 3.882812l7.617187 16.964844c1.75 3.890625.011719 8.464844-3.882812 10.214844-1.027344.460937-2.101562.679687-3.160156.679687zm0 0" fill="#00ad00"/><path d="m263.5 119.738281c-1.058594 0-2.132812-.21875-3.160156-.679687-3.894532-1.75-5.632813-6.324219-3.882813-10.214844l7.617188-16.964844c1.75-3.890625 6.320312-5.628906 10.214843-3.882812 3.890626 1.75 5.632813 6.320312 3.882813 10.214844l-7.617187 16.964843c-1.289063 2.863281-4.105469 4.5625-7.054688 4.5625zm0 0" fill="#9be058"/><path d="m202.425781 210.492188c-1.78125 0-3.570312-.609376-5.027343-1.863282-3.238282-2.777344-3.609376-7.65625-.832032-10.894531l11.546875-13.457031c2.78125-3.238282 7.65625-3.613282 10.894531-.835938 3.238282 2.78125 3.613282 7.65625.835938 10.898438l-11.550781 13.457031c-1.527344 1.78125-3.691407 2.695313-5.867188 2.695313zm0 0" fill="#c0ff66"/></svg>