<?xml version="1.0" encoding="utf-8"?>
<!-- Generator: Adobe Illustrator 22.1.0, SVG Export Plug-In . SVG Version: 6.00 Build 0)  -->
<svg version="1.1" id="Calque_1" xmlns="http://www.w3.org/2000/svg" xmlns:xlink="http://www.w3.org/1999/xlink" x="0px" y="0px"
	 viewBox="0 0 100 100" style="enable-background:new 0 0 100 100;" xml:space="preserve">
<g>
	<g>
		<path d="M92.9,72.6l-11.6-6.8l11-3.1c1-0.3,1.6-1.4,1.3-2.4c-0.3-1-1.4-1.6-2.4-1.3l-14.6,4.2L54.3,50l22.4-13.1l14.6,4.2
			c0.2,0.1,0.4,0.1,0.5,0.1c0.9,0,1.6-0.6,1.9-1.4c0.3-1-0.3-2.1-1.3-2.4l-11-3.1l11.6-6.8c0.9-0.5,1.2-1.7,0.7-2.7
			c-0.5-0.9-1.7-1.2-2.7-0.7l-11.6,6.8L82,19.7c0.2-1-0.4-2.1-1.5-2.4c-1.1-0.2-2.1,0.4-2.4,1.4l-3.5,14.8L52.4,46.6V20.8l11-10.5
			c0.8-0.7,0.8-2,0.1-2.8c-0.7-0.8-2-0.8-2.8-0.1l-8.3,7.9V2c0-1.1-0.9-2-2-2c-1.1,0-2,0.9-2,2v13.4l-8.3-7.9
			c-0.8-0.7-2-0.7-2.8,0.1c-0.7,0.8-0.7,2,0.1,2.8l11,10.5v25.8L26.2,33.5l-3.5-14.8c-0.2-1-1.3-1.7-2.4-1.4
			c-1.1,0.2-1.7,1.3-1.5,2.4l2.6,11.1L9.9,24c-0.9-0.5-2.1-0.2-2.7,0.7C6.7,25.7,7,26.9,8,27.4l11.6,6.8l-11,3.1
			c-1,0.3-1.6,1.4-1.3,2.4c0.2,0.9,1,1.4,1.9,1.4c0.2,0,0.4,0,0.5-0.1l14.6-4.2L46.6,50L24.2,63.1L9.6,58.9c-1-0.3-2.1,0.3-2.4,1.3
			c-0.3,1,0.3,2.1,1.3,2.4l11,3.1L8,72.6c-0.9,0.5-1.2,1.7-0.7,2.7c0.4,0.6,1,1,1.7,1c0.3,0,0.7-0.1,1-0.3l11.6-6.8l-2.6,11.1
			c-0.2,1,0.4,2.1,1.5,2.4c0.2,0,0.3,0.1,0.5,0.1c0.9,0,1.7-0.6,1.9-1.5l3.5-14.8l22.3-13.1v25.8l-11,10.5c-0.8,0.7-0.8,2-0.1,2.8
			c0.7,0.8,2,0.8,2.8,0.1l8.3-7.9V98c0,1.1,0.9,2,2,2c1.1,0,2-0.9,2-2V84.7l8.3,7.9c0.4,0.4,0.9,0.5,1.4,0.5c0.5,0,1-0.2,1.4-0.6
			c0.7-0.8,0.7-2-0.1-2.8l-11-10.5V53.4l22.3,13.1l3.5,14.8c0.2,0.9,1,1.5,1.9,1.5c0.1,0,0.3,0,0.5-0.1c1.1-0.2,1.7-1.3,1.5-2.4
			l-2.6-11.1L91,76c0.3,0.2,0.7,0.3,1,0.3c0.7,0,1.3-0.3,1.7-1C94.2,74.3,93.9,73.1,92.9,72.6"/>
	</g>
</g>
</svg>
